<svg class="animated" id="freepik_stories-reading-a-letter" xmlns="http://www.w3.org/2000/svg" viewBox="0 0 500 500" version="1.1" xmlns:xlink="http://www.w3.org/1999/xlink" xmlns:svgjs="http://svgjs.com/svgjs"><style>svg#freepik_stories-reading-a-letter:not(.animated) .animable {opacity: 0;}svg#freepik_stories-reading-a-letter.animated #freepik--Envelope--inject-184 {animation: 6s Infinite  linear floating;animation-delay: 0s;}            @keyframes floating {                0% {                    opacity: 1;                    transform: translateY(0px);                }                50% {                    transform: translateY(-10px);                }                100% {                    opacity: 1;                    transform: translateY(0px);                }            }        .animator-hidden { display: none; }</style><g id="freepik--Floor--inject-184" class="animable animator-hidden" style="transform-origin: 250px 352.22px;"><ellipse id="freepik--floor--inject-184" cx="250" cy="352.22" rx="239.65" ry="138.36" style="fill: rgb(250, 250, 250); transform-origin: 250px 352.22px;" class="animable"></ellipse></g><g id="freepik--Shadows--inject-184" class="animable" style="transform-origin: 246.239px 359.564px;"><path id="freepik--Shadow--inject-184" d="M65.22,384,15.87,355.54a1.27,1.27,0,0,1,0-2.4l122-70.67a4.59,4.59,0,0,1,4.16,0l49.35,28.45a1.27,1.27,0,0,1,0,2.4L69.37,384A4.57,4.57,0,0,1,65.22,384Z" style="fill: rgb(230, 230, 230); transform-origin: 103.625px 333.235px;" class="animable"></path><path id="freepik--shadow--inject-184" d="M52.62,417.48c-11.42,6.66-11.42,17.47,0,24.14s29.93,6.66,41.35,0,11.42-17.48,0-24.14S64,410.81,52.62,417.48Z" style="fill: rgb(230, 230, 230); transform-origin: 73.295px 429.55px;" class="animable"></path><path id="freepik--shadow--inject-184" d="M101.83,421.2l-28.5-16.46c-2.45-1.41-2.45-3.69,0-5.1L296.87,270.57a9.79,9.79,0,0,1,8.85,0L334.22,287c2.44,1.41,2.44,3.7,0,5.11L110.67,421.2A9.77,9.77,0,0,1,101.83,421.2Z" style="fill: rgb(235, 235, 235); transform-origin: 203.771px 345.885px;" class="animable"></path><path id="freepik--shadow--inject-184" d="M361.6,449,245,381.77c-1.44-.82-1.44-2.16,0-3l109.59-63.37a5.78,5.78,0,0,1,5.19,0l116.61,67.2c1.43.83,1.43,2.17,0,3L366.79,449A5.78,5.78,0,0,1,361.6,449Z" style="fill: rgb(224, 224, 224); transform-origin: 360.691px 382.2px;" class="animable"></path></g><g id="freepik--Dreawer--inject-184" class="animable animator-active animator-hidden" style="transform-origin: 104.25px 276.6px;"><g id="freepik--Drawer--inject-184" class="animable" style="transform-origin: 104.25px 276.6px;"><polygon points="75.66 356.48 71.42 377.5 67.3 379.88 63.22 377.52 58.94 356.48 67.3 351.65 75.66 356.48" style="fill: rgb(224, 224, 224); transform-origin: 67.3px 365.765px;" id="el4optnxpk0zg" class="animable"></polygon><g id="elu7dpmrnabhr"><polygon points="75.66 356.48 71.42 377.5 67.3 379.88 63.22 377.52 58.94 356.48 67.3 351.65 75.66 356.48" style="opacity: 0.05; transform-origin: 67.3px 365.765px;" class="animable"></polygon></g><polygon points="67.3 379.88 67.3 361.3 75.66 356.48 71.42 377.5 67.3 379.88" style="fill: rgb(235, 235, 235); transform-origin: 71.48px 368.18px;" id="elwodkkgqc83g" class="animable"></polygon><g id="elzhil4tq8lac"><polygon points="75.66 356.48 72.92 370.06 67.3 373.3 61.7 370.07 58.94 356.48 67.3 351.65 75.66 356.48" style="opacity: 0.05; transform-origin: 67.3px 362.475px;" class="animable"></polygon></g><polygon points="38.91 335.26 34.67 356.28 30.55 358.66 26.46 356.31 22.19 335.26 30.55 330.43 38.91 335.26" style="fill: rgb(224, 224, 224); transform-origin: 30.55px 344.545px;" id="elnqim0oy10wq" class="animable"></polygon><g id="el3ckcophnpa"><polygon points="38.91 335.26 34.67 356.28 30.55 358.66 26.46 356.31 22.19 335.26 30.55 330.43 38.91 335.26" style="opacity: 0.05; transform-origin: 30.55px 344.545px;" class="animable"></polygon></g><polygon points="30.55 358.66 30.55 340.08 38.91 335.26 34.67 356.28 30.55 358.66" style="fill: rgb(235, 235, 235); transform-origin: 34.73px 346.96px;" id="elvb5hv86zv1" class="animable"></polygon><g id="el1mwrv2ptoya"><polygon points="38.91 335.26 36.17 348.84 30.55 352.08 24.95 348.85 22.19 335.26 30.55 330.43 38.91 335.26" style="opacity: 0.05; transform-origin: 30.55px 341.255px;" class="animable"></polygon></g><g id="elnkp4nlmt55d"><polygon points="184.38 293.71 180.14 314.73 176.02 317.11 171.94 314.75 167.66 293.71 176.02 288.88 184.38 293.71" style="opacity: 0.05; transform-origin: 176.02px 302.995px;" class="animable"></polygon></g><polygon points="176.02 317.11 176.02 298.53 184.38 293.71 180.14 314.73 176.02 317.11" style="fill: rgb(235, 235, 235); transform-origin: 180.2px 305.41px;" id="elgcxkff0ulfc" class="animable"></polygon><g id="elcxjpt6gtwz5"><polygon points="184.38 293.71 181.64 307.28 176.02 310.53 170.42 307.3 167.66 293.71 176.02 288.88 184.38 293.71" style="opacity: 0.05; transform-origin: 176.02px 299.705px;" class="animable"></polygon></g><g id="freepik--Cabinet--inject-184" class="animable" style="transform-origin: 104.25px 272.99px;"><g id="freepik--cabinet--inject-184" class="animable" style="transform-origin: 104.25px 272.99px;"><polygon points="67.3 369.91 21.75 343.61 21.75 245.03 67.3 271.33 67.3 369.91" style="fill: rgb(224, 224, 224); transform-origin: 44.525px 307.47px;" id="elnfevjqkczt" class="animable"></polygon><polygon points="67.3 271.33 186.75 202.36 186.75 300.94 67.3 369.91 67.3 271.33" style="fill: rgb(235, 235, 235); transform-origin: 127.025px 286.135px;" id="eltlzp878pfv" class="animable"></polygon><polygon points="186.75 202.36 67.3 271.33 21.75 245.03 141.2 176.07 186.75 202.36" style="fill: rgb(245, 245, 245); transform-origin: 104.25px 223.7px;" id="ela00uhvhwn29" class="animable"></polygon><polygon points="73.81 320.16 180.24 258.71 180.24 294.89 181.44 295.58 75 357.03 73.81 356.34 73.81 320.16" style="fill: rgb(224, 224, 224); transform-origin: 127.625px 307.87px;" id="elzcom7dagtht" class="animable"></polygon><polygon points="75 320.85 181.44 259.4 181.44 295.58 75 357.03 75 320.85" style="fill: rgb(245, 245, 245); transform-origin: 128.22px 308.215px;" id="elfen53n5ismj" class="animable"></polygon><path d="M126.17,298.15,135,293c1.15-.67,2.08-.36,2.08.67a4.15,4.15,0,0,1-2.08,3.08l-8.85,5.11c-1.15.67-2.08.37-2.08-.67A4.15,4.15,0,0,1,126.17,298.15Z" style="fill: rgb(224, 224, 224); transform-origin: 130.575px 297.431px;" id="elvrx6zvd7ca" class="animable"></path><polygon points="73.81 276.48 180.24 215.03 180.24 251.21 181.43 251.9 75 313.35 73.8 312.65 73.81 276.48" style="fill: rgb(224, 224, 224); transform-origin: 127.615px 264.19px;" id="el2661rgl5txh" class="animable"></polygon><polygon points="75 277.17 181.44 215.72 181.43 251.9 75 313.35 75 277.17" style="fill: rgb(245, 245, 245); transform-origin: 128.22px 264.535px;" id="elhk95p5d07ta" class="animable"></polygon><path d="M126.17,254.46l8.85-5.11c1.15-.66,2.08-.36,2.08.68a4.15,4.15,0,0,1-2.08,3.08l-8.85,5.11c-1.15.66-2.08.36-2.08-.68A4.19,4.19,0,0,1,126.17,254.46Z" style="fill: rgb(224, 224, 224); transform-origin: 130.595px 253.785px;" id="elkyy3phrcbcs" class="animable"></path></g></g><g id="freepik--Pot--inject-184" class="animable" style="transform-origin: 127.98px 196.289px;"><path d="M137.78,205.32c5.52,3.19,5.52,8.36,0,11.55s-14.47,3.18-20,0-5.52-8.36,0-11.55S132.26,202.13,137.78,205.32Z" style="fill: rgb(224, 224, 224); transform-origin: 127.778px 211.093px;" id="el4d0sx04tpwz" class="animable"></path><path d="M119,211.81c-4.81-4.91-7.63-17.16-2.94-21.05h23.86c4.69,3.89,1.87,16.13-2.94,21l-.13.14-.16.16a5.46,5.46,0,0,1-.44.38l-.11.09-.37.28c-.2.14-.41.28-.62.4a15.84,15.84,0,0,1-14.32,0h0c-.21-.12-.42-.26-.63-.4l-.33-.26-.15-.11c-.15-.12-.29-.25-.42-.37s-.12-.13-.19-.19Z" style="fill: rgb(235, 235, 235); transform-origin: 127.99px 202.84px;" id="elu8dvlh30n8f" class="animable"></path><path d="M137.84,189.19c5.45,3.14,5.45,8.24,0,11.38s-14.27,3.15-19.72,0-5.44-8.24,0-11.38S132.4,186.05,137.84,189.19Z" style="fill: rgb(250, 250, 250); transform-origin: 127.982px 194.882px;" id="elfepfk3yzg1r" class="animable"></path><path d="M134,191.42c3.31,1.91,3.31,5,0,6.92a13.22,13.22,0,0,1-12,0c-3.31-1.91-3.31-5,0-6.92A13.28,13.28,0,0,1,134,191.42Z" style="fill: rgb(245, 245, 245); transform-origin: 128px 194.884px;" id="elyzecr29fzlr" class="animable"></path><path d="M122,194.71a13.22,13.22,0,0,1,12,0,5.5,5.5,0,0,1,2,1.81,5.43,5.43,0,0,1-2,1.82,13.22,13.22,0,0,1-12,0,5.43,5.43,0,0,1-2-1.82A5.5,5.5,0,0,1,122,194.71Z" style="fill: rgb(235, 235, 235); transform-origin: 128px 196.525px;" id="el2lgewuz9fxr" class="animable"></path><path d="M133.25,196.52a27.35,27.35,0,0,0,4.34-5.76c2-3.55,2.37-8.29,1.34-8.88s-5.26,4.15-5.26,4.15a25.9,25.9,0,0,0,.45-6.05c-.18-3.15-1-6-1.85-6.6s-2.93,3.4-3.8,6.29-1.38,5.25-1.38,5.25a44,44,0,0,0-1.56-6.64c-1-3-2-3.67-2.74-3.37s-1.23,1.69-1.45,5.68a39.59,39.59,0,0,0,.18,5.71s-1.48-1.63-3.13-3.22c-1.82-1.74-2.59-2-3.11-1.65s-.66,3,2.15,8.12a28.16,28.16,0,0,0,5.29,7S126.61,199,133.25,196.52Z" style="fill: rgb(224, 224, 224); transform-origin: 127.234px 185.475px;" id="elk2macmx9jce" class="animable"></path></g><g id="freepik--Picture--inject-184" class="animable" style="transform-origin: 78.99px 218.1px;"><g id="freepik--Frame--inject-184" class="animable" style="transform-origin: 78.99px 218.1px;"><polygon points="64.06 251.41 65.83 252.26 98.68 233.29 96.91 232.44 64.06 251.41" style="fill: rgb(250, 250, 250); transform-origin: 81.37px 242.35px;" id="el0v0f92c953hm" class="animable"></polygon><polygon points="96.91 232.44 65.66 250.48 61.12 203.74 92.36 185.71 96.91 232.44" style="fill: rgb(255, 255, 255); transform-origin: 79.015px 218.095px;" id="elf737oa36ku" class="animable"></polygon><path d="M96.66,179.72,57.77,202.18l5.36,55.13L102,234.85Zm2,53.57-32.85,19-4.72-48.52,32.85-19Z" style="fill: rgb(240, 240, 240); transform-origin: 79.885px 218.515px;" id="ele97z0312tgw" class="animable"></path><polygon points="98.68 233.29 96.91 232.44 92.36 185.71 93.96 184.77 98.68 233.29" style="fill: rgb(224, 224, 224); transform-origin: 95.52px 209.03px;" id="el7wt6yd87eug" class="animable"></polygon><polygon points="96.66 179.72 94.87 178.89 55.98 201.35 57.77 202.18 96.66 179.72" style="fill: rgb(250, 250, 250); transform-origin: 76.32px 190.535px;" id="elilrcdjuafrg" class="animable"></polygon><polygon points="55.98 201.35 57.77 202.18 63.13 257.31 61.34 256.48 55.98 201.35" style="fill: rgb(224, 224, 224); transform-origin: 59.555px 229.33px;" id="elxqabmfaljog" class="animable"></polygon></g><g id="freepik--Land--inject-184" class="animable" style="transform-origin: 80.745px 227.657px;"><polygon points="95.53 231.55 66.73 248.18 65.96 240.31 71.32 217.18 76.43 225.07 75.37 231.72 83.89 207.18 94.77 223.68 95.53 231.55" style="fill: rgb(240, 240, 240); transform-origin: 80.745px 227.68px;" id="elcvmq5241mm" class="animable"></polygon><path d="M70.88,207.44A4.06,4.06,0,0,0,69,211c.13,1.28,1.18,1.78,2.36,1.1a4,4,0,0,0,1.9-3.56C73.11,207.25,72.05,206.76,70.88,207.44Z" style="fill: rgb(240, 240, 240); transform-origin: 71.1304px 209.769px;" id="el8ipxg5eosm" class="animable"></path></g></g></g></g><g id="freepik--Pictures--inject-184" class="animable animator-hidden" style="transform-origin: 415.38px 106.63px;"><g id="freepik--picture--inject-184" class="animable" style="transform-origin: 446.475px 124.675px;"><g id="freepik--frame--inject-184" class="animable" style="transform-origin: 446.475px 124.675px;"><polygon points="470.38 180.39 468.16 181.72 422.54 155.37 424.76 154.05 470.38 180.39" style="fill: rgb(250, 250, 250); transform-origin: 446.46px 167.885px;" id="elei0vghb20jj" class="animable"></polygon><polygon points="424.76 154.05 468.16 179.1 468.16 95.27 424.76 70.23 424.76 154.05" style="fill: rgb(255, 255, 255); transform-origin: 446.46px 124.665px;" id="elrgq0d2lbpbl" class="animable"></polygon><path d="M418.34,157.79l54,31.19V92.85l-54-31.19Zm4.19-88.86,45.63,26.34v86.44l-45.63-26.34Z" style="fill: rgb(240, 240, 240); transform-origin: 445.34px 125.32px;" id="elen9f9u58oor" class="animable"></path><polygon points="422.54 155.37 424.76 154.05 424.76 70.23 422.53 68.93 422.54 155.37" style="fill: rgb(224, 224, 224); transform-origin: 423.645px 112.15px;" id="el22513nssxn4j" class="animable"></polygon><polygon points="418.34 61.66 420.6 60.37 474.61 91.56 472.35 92.85 418.34 61.66" style="fill: rgb(250, 250, 250); transform-origin: 446.475px 76.61px;" id="elitkkei1hnrj" class="animable"></polygon><polygon points="474.61 91.56 472.35 92.85 472.35 188.98 474.61 187.69 474.61 91.56" style="fill: rgb(224, 224, 224); transform-origin: 473.48px 140.27px;" id="el3erxkvq03yc" class="animable"></polygon></g><g id="freepik--land--inject-184" class="animable" style="transform-origin: 446.455px 125.325px;"><polygon points="428.01 151.45 464.9 172.75 464.9 99.19 428.01 77.9 428.01 151.45" style="fill: rgb(240, 240, 240); transform-origin: 446.455px 125.325px;" id="elacqv0p6sxh6" class="animable"></polygon></g><g id="freepik--land--inject-184" class="animable" style="transform-origin: 446.455px 125.325px;"><polygon points="428.01 151.45 464.9 172.75 464.9 99.19 428.01 77.9 428.01 151.45" style="fill: rgb(240, 240, 240); transform-origin: 446.455px 125.325px;" id="elxmemmucob5b" class="animable"></polygon></g><path d="M464.9,147.3a34.34,34.34,0,0,1-5.27,0,66.31,66.31,0,0,1-18-3.91c-4.46-1.65-8.92-3.79-13.65-3.92v12l5,2.88a16.92,16.92,0,0,1,6.85-3.8c7.1-1.87,14.39,1.71,21.7,2.54a28.63,28.63,0,0,0,3.34.17Z" style="fill: rgb(250, 250, 250); transform-origin: 446.44px 146.91px;" id="eluhfc8k1n8or" class="animable"></path><path d="M464.9,135.07c-8.25-2.44-16.72-4.48-22.61-10.53-4.75-4.88-7-11.64-8.55-18.27s-2.63-13.47-5.63-19.58l-.1-.18v38.33c.46.69.93,1.38,1.42,2,5.42,7.35,13.4,13.48,22.52,14,4.28.23,8.71-.78,12.95-.76Z" style="fill: rgb(250, 250, 250); transform-origin: 446.455px 113.692px;" id="elb079fmu4938" class="animable"></path><path d="M464.9,119.44a25.13,25.13,0,0,1-8.17-22.88c.11-.62.26-1.23.42-1.84L443,86.52c.06.94.1,1.87.13,2.8.15,5.42,0,10.91,1.16,16.19a31.84,31.84,0,0,0,16.17,20.9,29.76,29.76,0,0,0,4.49,1.87Z" style="fill: rgb(250, 250, 250); transform-origin: 453.975px 107.4px;" id="el51xgbr0z50d" class="animable"></path></g><g id="freepik--picture--inject-184" class="animable" style="transform-origin: 380.245px 59.255px;"><g id="freepik--frame--inject-184" class="animable" style="transform-origin: 380.245px 59.255px;"><polygon points="400.72 86.88 398.82 88.01 359.75 65.45 361.65 64.32 400.72 86.88" style="fill: rgb(250, 250, 250); transform-origin: 380.235px 76.165px;" id="elx2se7b29cw" class="animable"></polygon><polygon points="361.65 64.32 398.82 85.77 398.82 54.17 361.65 32.73 361.65 64.32" style="fill: rgb(255, 255, 255); transform-origin: 380.235px 59.25px;" id="el5i500gifdps" class="animable"></polygon><path d="M356.15,67.53l46.26,26.7V52.1L356.15,25.39Zm3.6-35.92,39.07,22.56V88L359.75,65.45Z" style="fill: rgb(240, 240, 240); transform-origin: 379.28px 59.81px;" id="el99qfxufb3xp" class="animable"></path><polygon points="359.75 65.45 361.65 64.32 361.65 32.73 359.75 31.61 359.75 65.45" style="fill: rgb(224, 224, 224); transform-origin: 360.7px 48.53px;" id="elk8hlfnl20h8" class="animable"></polygon><polygon points="356.15 25.39 358.09 24.28 404.34 50.99 402.41 52.09 356.15 25.39" style="fill: rgb(250, 250, 250); transform-origin: 380.245px 38.185px;" id="el64dhpgsnj22" class="animable"></polygon><polygon points="404.34 50.99 402.41 52.09 402.41 94.23 404.34 93.13 404.34 50.99" style="fill: rgb(224, 224, 224); transform-origin: 403.375px 72.61px;" id="els3r7sgd9deo" class="animable"></polygon></g><g id="freepik--land--inject-184" class="animable" style="transform-origin: 380.235px 65.73px;"><polygon points="363.1 63.16 397.37 82.94 397.37 80.36 388.8 60.58 383.46 65.53 384.2 70.11 373.55 48.52 363.1 60.58 363.1 63.16" style="fill: rgb(240, 240, 240); transform-origin: 380.235px 65.73px;" id="eleaxtlxurpje" class="animable"></polygon><path d="M383.79,51a5.62,5.62,0,0,1,2.53,4.39c0,1.61-1.14,2.27-2.54,1.46a5.62,5.62,0,0,1-2.53-4.39C381.25,50.88,382.39,50.22,383.79,51Z" style="fill: rgb(240, 240, 240); transform-origin: 383.785px 53.9342px;" id="elbdeuu8bkhfb" class="animable"></path></g></g></g><g id="freepik--Window--inject-184" class="animable animator-hidden" style="transform-origin: 90.57px 107.67px;"><g id="freepik--window--inject-184" class="animable" style="transform-origin: 90.57px 107.67px;"><polygon points="148.16 121.86 33.01 188.34 33.01 93.44 148.16 26.98 148.16 121.86" style="fill: rgb(255, 255, 255); transform-origin: 90.585px 107.66px;" id="elhahgyssesy7" class="animable"></polygon><polygon points="30.75 189.65 33.01 191 150.41 123.21 148.16 121.86 30.75 189.65" style="fill: rgb(250, 250, 250); transform-origin: 90.58px 156.43px;" id="eln00pnb9acpq" class="animable"></polygon><path d="M154.68,18.28,28.75,91V198.37l125.93-72.7Zm-4.27,104.93L33,191V93.44L150.42,25.66Z" style="fill: rgb(240, 240, 240); transform-origin: 91.715px 108.325px;" id="el5yi2xmgxul" class="animable"></path><polygon points="150.41 123.21 148.16 121.86 148.16 26.98 150.42 25.66 150.41 123.21" style="fill: rgb(224, 224, 224); transform-origin: 149.29px 74.435px;" id="elh17x5dk9g2w" class="animable"></polygon><polygon points="154.68 18.28 152.38 16.97 26.46 89.67 28.75 90.98 154.68 18.28" style="fill: rgb(250, 250, 250); transform-origin: 90.57px 53.975px;" id="el833as2jrs07" class="animable"></polygon><polygon points="26.46 89.67 28.75 90.98 28.75 198.37 26.46 197.06 26.46 89.67" style="fill: rgb(224, 224, 224); transform-origin: 27.605px 144.02px;" id="eld4cqobwawal" class="animable"></polygon><polygon points="34.89 118.16 34.89 120.81 150.42 54.02 148.16 52.67 34.89 118.16" style="fill: rgb(250, 250, 250); transform-origin: 92.655px 86.74px;" id="el2zhkt1ua9pj" class="animable"></polygon><polygon points="88.08 61.66 90.38 60.34 90.38 157.9 88.08 156.58 88.08 61.66" style="fill: rgb(224, 224, 224); transform-origin: 89.23px 109.12px;" id="el5egwqxbmjvq" class="animable"></polygon><polygon points="94.64 57.89 90.38 60.34 90.38 157.9 94.64 155.43 94.64 57.89" style="fill: rgb(240, 240, 240); transform-origin: 92.51px 107.895px;" id="ely6elgvna95" class="animable"></polygon><polygon points="150.42 54.02 150.42 58.94 32.97 127 32.97 122.08 150.42 54.02" style="fill: rgb(240, 240, 240); transform-origin: 91.695px 90.51px;" id="elc3pv05yz96k" class="animable"></polygon><polygon points="90.38 88.81 88.08 87.41 33.01 119.24 33.01 122.08 90.38 88.81" style="fill: rgb(250, 250, 250); transform-origin: 61.695px 104.745px;" id="elrmkn2lmflch" class="animable"></polygon></g></g><g id="freepik--Envelope--inject-184" class="animable" style="transform-origin: 212.865px 234.606px;"><g id="freepik--open-envelope--inject-184" class="animable" style="transform-origin: 212.865px 234.606px;"><path d="M96.39,236.94l220-127,8.8,5.08a9.18,9.18,0,0,1,4.14,7.17v162.3a9.17,9.17,0,0,1-4.14,7.17L113.47,413.88a9.21,9.21,0,0,1-8.28,0l-4.67-2.69A9.21,9.21,0,0,1,96.39,404Z" style="fill: rgb(31, 64, 73); transform-origin: 212.86px 262.401px;" id="eluou0f8jes1" class="animable"></path><g id="el15spppbn6dn"><path d="M96.39,236.94l220-127,8.8,5.08a9.18,9.18,0,0,1,4.14,7.17v162.3a9.17,9.17,0,0,1-4.14,7.17L113.47,413.88a9.21,9.21,0,0,1-8.28,0l-4.67-2.69A9.21,9.21,0,0,1,96.39,404Z" style="fill: rgb(255, 255, 255); opacity: 0.15; transform-origin: 212.86px 262.401px;" class="animable"></path></g><path d="M315.19,95.64l.9-.49-3.42-2h0a5.78,5.78,0,0,0-.91-.43L214.93,56.86a6.68,6.68,0,0,0-7.44,2.36L99.18,217.4a18.65,18.65,0,0,0-2.79,9v10.51l3.35,1.95,216.66-129V99.41A7.19,7.19,0,0,0,315.19,95.64Z" style="fill: rgb(31, 64, 73); transform-origin: 206.395px 147.694px;" id="elgklqeizxd5a" class="animable"></path><g id="elti3v1oxs9pp"><path d="M212,60a5.28,5.28,0,0,0-1.12,1.19L102.53,219.35a17,17,0,0,0-2,4.52l-3.36-2a20.54,20.54,0,0,1,.87-2.39.36.36,0,0,0,0-.07c.15-.33.3-.64.47-1l.08-.15a7.87,7.87,0,0,1,.58-1L207.49,59.23a5.07,5.07,0,0,1,.55-.66c.18-.18.38-.36.57-.53Z" style="fill: rgb(255, 255, 255); opacity: 0.4; transform-origin: 154.585px 140.955px;" class="animable"></path></g><g id="el13ru2d05mzt"><path d="M316.05,95.14a5.68,5.68,0,0,0-.93-.45L218.28,58.8A6.63,6.63,0,0,0,212,60l-3.37-2a6.75,6.75,0,0,1,6.32-1.19l96.83,35.88a5.12,5.12,0,0,1,.91.45Z" style="fill: rgb(255, 255, 255); opacity: 0.7; transform-origin: 262.34px 75.8137px;" class="animable"></path></g><path d="M210.85,61.17,102.54,219.35a18.67,18.67,0,0,0-2.8,9v10.51l220-127V101.36a7.63,7.63,0,0,0-4.64-6.67L218.29,58.81A6.68,6.68,0,0,0,210.85,61.17Z" style="fill: rgb(31, 64, 73); transform-origin: 209.74px 148.669px;" id="elt5plt928q6" class="animable"></path><g id="elpyxa3cvj4d9"><path d="M210.85,61.17,102.54,219.35a18.67,18.67,0,0,0-2.8,9v10.51l220-127V101.36a7.63,7.63,0,0,0-4.64-6.67L218.29,58.81A6.68,6.68,0,0,0,210.85,61.17Z" style="fill: rgb(255, 255, 255); opacity: 0.15; transform-origin: 209.74px 148.669px;" class="animable"></path></g><polygon points="102.98 236.96 129.55 221.35 156.17 205.83 209.48 174.93 262.9 144.22 289.66 128.94 316.46 113.75 289.89 129.35 263.28 144.87 209.96 175.77 156.54 206.47 129.79 221.76 102.98 236.96" style="fill: rgb(31, 64, 73); transform-origin: 209.72px 175.355px;" id="elxfgw9kjnu6" class="animable"></polygon><g id="freepik--shadow--inject-184"><polygon points="292.42 86.28 253.64 71.91 170.71 119.79 115.13 200.97 115.13 348.5 292.42 246.14 292.42 86.28" style="opacity: 0.2; transform-origin: 203.775px 210.205px;" class="animable"></polygon></g><g id="freepik--Letter--inject-184" class="animable" style="transform-origin: 212.43px 204.98px;"><polygon points="125.76 158.99 125.76 355.61 303.05 253.25 303.05 56.63 125.76 158.99" style="fill: rgb(31, 64, 73); transform-origin: 214.405px 206.12px;" id="el314srurg9ff" class="animable"></polygon><polygon points="125.76 158.99 121.81 156.72 299.1 54.35 303.05 56.63 125.76 158.99" style="fill: rgb(31, 64, 73); transform-origin: 212.43px 106.67px;" id="elyd8kprqhqa" class="animable"></polygon><g id="elgt1hq20um8l"><polygon points="125.76 158.99 121.81 156.72 299.1 54.35 303.05 56.63 125.76 158.99" style="fill: rgb(255, 255, 255); opacity: 0.3; transform-origin: 212.43px 106.67px;" class="animable"></polygon></g><polygon points="121.81 156.72 121.81 353.32 125.76 355.61 125.76 158.99 121.81 156.72" style="fill: rgb(31, 64, 73); transform-origin: 123.785px 256.165px;" id="el4fysy7it2ua" class="animable"></polygon><g id="el1b3jx6cd8v7"><polygon points="121.81 156.72 121.81 353.32 125.76 355.61 125.76 158.99 121.81 156.72" style="opacity: 0.2; transform-origin: 123.785px 256.165px;" class="animable"></polygon></g><polygon points="297.1 67.83 132.59 162.81 132.59 341.83 297.1 246.85 297.1 67.83" style="fill: rgb(250, 250, 250); transform-origin: 214.845px 204.83px;" id="ele3hpaz492tl" class="animable"></polygon><g id="freepik--Text--inject-184" class="animable" style="transform-origin: 215.485px 207.705px;"><text transform="matrix(0.86, -0.5, 0.4, 0.92, 154.11, 196.75)" style="font-size:20.02914047241211px;fill:#263238;font-family:Nickainley-Normal, Nickainley">Dear Anna:</text><path d="M158.32,292.57l118.91-68.65a4.89,4.89,0,0,0,2.27-3.77c0-1.36-1-1.87-2.27-1.15L158.31,287.66a4.86,4.86,0,0,0-2.26,3.76C156.05,292.78,157.06,293.29,158.32,292.57Z" style="fill: rgb(224, 224, 224); transform-origin: 217.775px 255.785px;" id="el6k04fc1nh1n" class="animable"></path><path d="M158.32,282.74l118.91-68.65a4.87,4.87,0,0,0,2.27-3.77c0-1.36-1-1.87-2.27-1.15L158.32,277.82a4.87,4.87,0,0,0-2.27,3.77C156.05,283,157.06,283.46,158.32,282.74Z" style="fill: rgb(224, 224, 224); transform-origin: 217.775px 245.96px;" id="elzlftnrj6o3m" class="animable"></path><path d="M158.32,272.91l118.91-68.66a4.84,4.84,0,0,0,2.27-3.76c0-1.36-1-1.88-2.27-1.15L158.32,268a4.86,4.86,0,0,0-2.27,3.77C156.05,273.12,157.07,273.63,158.32,272.91Z" style="fill: rgb(224, 224, 224); transform-origin: 217.775px 236.123px;" id="ela0n8hci8qi5" class="animable"></path><path d="M158.32,263.08l118.91-68.66a4.84,4.84,0,0,0,2.27-3.77c0-1.35-1-1.87-2.27-1.14L158.32,258.16a4.89,4.89,0,0,0-2.27,3.77C156.05,263.29,157.07,263.8,158.32,263.08Z" style="fill: rgb(224, 224, 224); transform-origin: 217.775px 226.293px;" id="el5te06nx4cva" class="animable"></path><path d="M158.31,243.42l118.92-68.66A4.87,4.87,0,0,0,279.5,171c0-1.35-1-1.87-2.27-1.14L158.31,238.5a4.89,4.89,0,0,0-2.27,3.77C156,243.63,157.06,244.14,158.31,243.42Z" style="fill: rgb(224, 224, 224); transform-origin: 217.769px 206.638px;" id="el534ry4z35e5" class="animable"></path><path d="M158.32,233.59l118.91-68.66a4.87,4.87,0,0,0,2.27-3.77c0-1.35-1-1.87-2.27-1.14L158.31,228.67a4.87,4.87,0,0,0-2.26,3.77C156.05,233.8,157.06,234.31,158.32,233.59Z" style="fill: rgb(224, 224, 224); transform-origin: 217.775px 196.803px;" id="el5it9udki9yt" class="animable"></path><path d="M158.32,223.75,277.23,155.1a4.84,4.84,0,0,0,2.27-3.77c0-1.35-1-1.87-2.27-1.15L158.32,218.84a4.84,4.84,0,0,0-2.27,3.77C156.05,224,157.06,224.48,158.32,223.75Z" style="fill: rgb(224, 224, 224); transform-origin: 217.775px 186.972px;" id="elgdudoo312yq" class="animable"></path><path d="M158.32,213.92l118.91-68.65a4.84,4.84,0,0,0,2.27-3.77c0-1.36-1-1.87-2.27-1.15L158.32,209a4.84,4.84,0,0,0-2.27,3.77C156.05,214.13,157.07,214.65,158.32,213.92Z" style="fill: rgb(224, 224, 224); transform-origin: 217.775px 177.137px;" id="elj2sua6d6z2" class="animable"></path><path d="M158.32,321.92l118.91-68.66a4.84,4.84,0,0,0,2.27-3.77c0-1.35-1-1.87-2.27-1.14L158.32,317a4.84,4.84,0,0,0-2.27,3.77C156.05,322.13,157.06,322.64,158.32,321.92Z" style="fill: rgb(224, 224, 224); transform-origin: 217.775px 285.133px;" id="el129uc41trq2j" class="animable"></path><path d="M158.32,312.08l118.91-68.65a4.84,4.84,0,0,0,2.27-3.77c0-1.36-1-1.87-2.27-1.15L158.32,307.17a4.84,4.84,0,0,0-2.27,3.77C156.05,312.29,157.07,312.81,158.32,312.08Z" style="fill: rgb(224, 224, 224); transform-origin: 217.775px 275.297px;" id="elfwfqc39gfkn" class="animable"></path><path d="M252,115.61l29.79-17.2A4.84,4.84,0,0,0,284,94.64c0-1.36-1-1.87-2.27-1.15L252,110.7a4.84,4.84,0,0,0-2.27,3.77C249.7,115.82,250.71,116.34,252,115.61Z" style="fill: rgb(224, 224, 224); transform-origin: 266.865px 104.552px;" id="el9wuuv6vdtb9" class="animable"></path></g></g><path d="M329.27,121.13h0c-.2-1.19-.83-1.52-1.63-1a4.6,4.6,0,0,0-1.06,1.09l-.46.64L235.62,259.45l-13.51,18.82a7.7,7.7,0,0,1-7.44,2.79L203,278.29l-89-32.77a4.53,4.53,0,0,0-1.82-.07,3.73,3.73,0,0,0-.67.21l3.35-1.94L200.2,275l11.24,4a7.67,7.67,0,0,0,7.44-2.79l13.51-18.81,90.92-138.19a3.73,3.73,0,0,1,1-.94l-7.86-4.54,3.29-1.89,5.45,3.13A9.44,9.44,0,0,1,329.27,121.13Z" style="fill: rgb(31, 64, 73); transform-origin: 220.39px 196.515px;" id="ell7qki52m4e" class="animable"></path><path d="M323.76,286.63a2.85,2.85,0,0,1-.23.33l-91.68-29.08A15.82,15.82,0,0,0,212,264L114,409.66l-3.63,2.1h0a2.94,2.94,0,0,1-2.8.31l100.8-150.16a15.84,15.84,0,0,1,19.83-6.11Z" style="fill: rgb(31, 64, 73); transform-origin: 215.665px 333.372px;" id="elppfk7kz9hb" class="animable"></path><g id="elhw90e5w7jy7"><path d="M325.2,115l-5.44-3.13-3.3,1.9,7.87,4.53,0,0h0a3.65,3.65,0,0,0-1,.94l-90.78,138-.46.66.62.2,3.17,1,90.23-137.19.46-.64a5,5,0,0,1,1.06-1.09c.81-.56,1.44-.23,1.63,1h0A9.46,9.46,0,0,0,325.2,115Z" style="fill: rgb(255, 255, 255); opacity: 0.4; transform-origin: 280.675px 185.485px;" class="animable"></path></g><path d="M115.8,248.15,96.39,236.94V404a9.21,9.21,0,0,0,4.13,7.17l4.67,2.69a9.21,9.21,0,0,0,8.28,0l2.33-1.35Z" style="fill: rgb(31, 64, 73); transform-origin: 106.095px 325.891px;" id="elpub5yjfnp1" class="animable"></path><g id="eltzo409c12e9"><path d="M115.8,248.15,96.39,236.94V404a9.21,9.21,0,0,0,4.13,7.17l4.67,2.69a9.21,9.21,0,0,0,8.28,0l2.33-1.35Z" style="fill: rgb(255, 255, 255); opacity: 0.25; transform-origin: 106.095px 325.891px;" class="animable"></path></g><path d="M329.35,122.17V284.46a8.46,8.46,0,0,1-1.29,4.19,9,9,0,0,1-2.42,2.72l-.17.08a2.14,2.14,0,0,1-.26.19L113.48,413.87a3,3,0,0,1-2.86.34,2.49,2.49,0,0,1-1.23-2,4.38,4.38,0,0,1,0-.74V249.18a3.6,3.6,0,0,1,4.65-3.66l89,32.77,11.66,2.77a7.7,7.7,0,0,0,7.44-2.79l13.51-18.82L326.1,121.9l.46-.64C328.09,119.13,329.35,119.53,329.35,122.17Z" style="fill: rgb(31, 64, 73); transform-origin: 219.362px 267.16px;" id="elip3xhdqltbk" class="animable"></path><g id="ela119cpgnalu"><path d="M329.35,122.17V284.46a8.46,8.46,0,0,1-1.29,4.19,9,9,0,0,1-2.42,2.72l-.17.08a2.14,2.14,0,0,1-.26.19L113.48,413.87a3,3,0,0,1-2.86.34,2.49,2.49,0,0,1-1.23-2,4.38,4.38,0,0,1,0-.74V249.18a3.6,3.6,0,0,1,4.65-3.66l89,32.77,11.66,2.77a7.7,7.7,0,0,0,7.44-2.79l13.51-18.82L326.1,121.9l.46-.64C328.09,119.13,329.35,119.53,329.35,122.17Z" style="fill: rgb(255, 255, 255); opacity: 0.5; transform-origin: 219.362px 267.16px;" class="animable"></path></g><path d="M323.39,287.16l-91.32-29.3A16.09,16.09,0,0,0,212,264l-3.63-2.11c4.19-6.66,11.57-9.14,20-6.4Z" style="fill: rgb(31, 64, 73); transform-origin: 265.88px 270.776px;" id="elovkhd9qc14" class="animable"></path><g id="elmirds37gi5m"><path d="M323.39,287.16l-91.32-29.3A16.09,16.09,0,0,0,212,264l-3.63-2.11c4.19-6.66,11.57-9.14,20-6.4Z" style="fill: rgb(255, 255, 255); opacity: 0.8; transform-origin: 265.88px 270.776px;" class="animable"></path></g><g id="ely8pyvq8l4v8"><path d="M325.21,291.64l.27-.18.16-.09a9.09,9.09,0,0,0,2.42-2.71,8.47,8.47,0,0,0,1.28-4.12l-93.71-25.09,62.75,47.67Z" style="fill: rgb(31, 64, 73); opacity: 0.3; transform-origin: 282.485px 283.285px;" class="animable"></path></g><path d="M328.06,288.66a9.09,9.09,0,0,1-2.42,2.71l-.16.09-212,122.41,0,0a3,3,0,0,1-2.82.32L212,263.94A15.94,15.94,0,0,1,232,257.82Z" style="fill: rgb(31, 64, 73); transform-origin: 219.36px 335.424px;" id="elwsm5vv75nvl" class="animable"></path><g id="ell25m4opv32j"><path d="M328.06,288.66a9.09,9.09,0,0,1-2.42,2.71h0l-212,122.41-.21.11a3,3,0,0,1-2.82.32L212,263.94A15.94,15.94,0,0,1,232,257.82Z" style="fill: rgb(255, 255, 255); opacity: 0.6; transform-origin: 219.335px 335.434px;" class="animable"></path></g><g id="elxf7n2zociei"><path d="M97.16,221.92l3.36,2a16.35,16.35,0,0,0-.77,4.52v10.49l-3.37-1.95V226.42A16.38,16.38,0,0,1,97.16,221.92Z" style="fill: rgb(255, 255, 255); opacity: 0.25; transform-origin: 98.45px 230.425px;" class="animable"></path></g><polygon points="114.85 243.72 111.5 245.66 108.1 243.7 99.74 238.88 102.98 236.96 114.85 243.72" style="fill: rgb(31, 64, 73); transform-origin: 107.295px 241.31px;" id="el993uk1p48tp" class="animable"></polygon><g id="elq76chgf5uhe"><path d="M115,243.79,103,237l-3.25,1.93,8.36,4.82,3.4,2,0,0a3.65,3.65,0,0,1,.64-.2,4.47,4.47,0,0,1,1.81.07l6.77,2.49,77.74,28.62,1.18-1.81Z" style="fill: rgb(255, 255, 255); opacity: 0.4; transform-origin: 149.7px 256.865px;" class="animable"></path></g><path d="M212,264,110.62,414.2a2.86,2.86,0,0,1-1.29-2.72v-2.69l99-146.87s0,0,0-.05Z" style="fill: rgb(31, 64, 73); transform-origin: 160.656px 338.035px;" id="ellb45lk1npl" class="animable"></path><g id="el5eakevv2tjg"><path d="M212,264,110.62,414.2a2.86,2.86,0,0,1-1.29-2.72v-2.69l99-146.87s0,0,0-.05Z" style="fill: rgb(255, 255, 255); opacity: 0.3; transform-origin: 160.656px 338.035px;" class="animable"></path></g></g></g><g id="freepik--Plants--inject-184" class="animable" style="transform-origin: 68.7088px 373.275px;"><g id="freepik--Plant--inject-184" class="animable" style="transform-origin: 68.7088px 373.275px;"><g id="freepik--pot--inject-184" class="animable" style="transform-origin: 73.2955px 405.671px;"><path d="M56.64,433.35c-8.92-9.19-14.15-46.62-5.46-53.91H95.41c8.69,7.29,3.46,44.7-5.44,53.9l-.25.26-.31.3a9.28,9.28,0,0,1-.8.72l-.21.17c-.22.18-.44.35-.68.52a13.14,13.14,0,0,1-1.15.74c-7.33,4.28-19.22,4.28-26.55,0h0a11.4,11.4,0,0,1-1.16-.75c-.22-.15-.42-.32-.62-.48l-.27-.21a10.33,10.33,0,0,1-.77-.7l-.36-.35Z" style="fill: rgb(31, 64, 73); transform-origin: 73.2955px 409.35px;" id="elycfhs2v0i" class="animable"></path><g id="elrj2nhsmiot"><path d="M56.64,433.35c-8.92-9.19-14.15-46.62-5.46-53.91H95.41c8.69,7.29,3.46,44.7-5.44,53.9l-.25.26-.31.3a9.28,9.28,0,0,1-.8.72l-.21.17c-.22.18-.44.35-.68.52a13.14,13.14,0,0,1-1.15.74c-7.33,4.28-19.22,4.28-26.55,0h0a11.4,11.4,0,0,1-1.16-.75c-.22-.15-.42-.32-.62-.48l-.27-.21a10.33,10.33,0,0,1-.77-.7l-.36-.35Z" style="opacity: 0.3; transform-origin: 73.2955px 409.35px;" class="animable"></path></g><path d="M91.57,376.5c10.09,5.89,10.09,15.44,0,21.34s-26.45,5.89-36.55,0-10.09-15.45,0-21.34S81.48,370.61,91.57,376.5Z" style="fill: rgb(31, 64, 73); transform-origin: 73.2931px 387.172px;" id="ela6nyzb5fg7r" class="animable"></path><g id="elhv35f0jk8g"><g style="opacity: 0.15; transform-origin: 73.2931px 387.172px;" class="animable"><path d="M91.57,376.5c10.09,5.89,10.09,15.44,0,21.34s-26.45,5.89-36.55,0-10.09-15.45,0-21.34S81.48,370.61,91.57,376.5Z" id="elsug94nx3e3s" class="animable" style="transform-origin: 73.2931px 387.172px;"></path></g></g><path d="M86.72,379.33c7.41,4.33,7.41,11.34,0,15.67s-19.43,4.33-26.84,0-7.41-11.34,0-15.67S79.31,375,86.72,379.33Z" style="fill: rgb(31, 64, 73); transform-origin: 73.3px 387.165px;" id="elbq84cs7m6bi" class="animable"></path><g id="elhjoyc9nvfg"><path d="M86.72,379.33c7.41,4.33,7.41,11.34,0,15.67s-19.43,4.33-26.84,0-7.41-11.34,0-15.67S79.31,375,86.72,379.33Z" style="opacity: 0.5; transform-origin: 73.3px 387.165px;" class="animable"></path></g><path d="M59.88,386.77c7.41-4.33,19.43-4.33,26.84,0a12.31,12.31,0,0,1,4.44,4.12A12.38,12.38,0,0,1,86.72,395c-7.41,4.33-19.43,4.33-26.84,0a12.3,12.3,0,0,1-4.44-4.11A12.23,12.23,0,0,1,59.88,386.77Z" style="fill: rgb(69, 90, 100); transform-origin: 73.3px 390.885px;" id="elkk4tmfc2m0g" class="animable"></path></g><path d="M77.68,324.59a8.12,8.12,0,0,0-5.22-4.36,5.72,5.72,0,0,0-6.13,2.35c-.09.14,0,.46.16.24,1.49-2.05,4.19-2.11,6.4-1.3a8,8,0,0,1,4.58,5.25,28.51,28.51,0,0,1,1.24,7.73,67.27,67.27,0,0,1,0,8.4c-.73,11.2-3.78,22.08-6.15,33a135.55,135.55,0,0,0-2.91,18.46c0,.56.82,1.08.89.32,1.19-12.38,4.82-24.3,7.23-36.46a104.68,104.68,0,0,0,2.2-18C80,335.18,80.07,329.21,77.68,324.59Z" style="fill: rgb(55, 71, 79); transform-origin: 73.1363px 357.56px;" id="elegad0xk52xk" class="animable"></path><path d="M84.4,333.39c-5.32,0-9.58,4.1-12.1,8.44-2.87,4.95-4.61,10.68-6,16.21a102.1,102.1,0,0,0-2.79,18.48,61.84,61.84,0,0,0,0,9.72c.29,3.11.77,6.8,2.55,9.44.14.22.31-.19.28-.31-.59-2.62-1.42-5.11-1.76-7.8a51.62,51.62,0,0,1-.29-7.86,102.46,102.46,0,0,1,1.87-16.39,85.89,85.89,0,0,1,4.64-15.79c1.86-4.58,4.47-9.21,9-11.54a10.31,10.31,0,0,1,7.89-.83A7.89,7.89,0,0,1,93,340.64c0,.18.23,0,.21-.14A8.73,8.73,0,0,0,84.4,333.39Z" style="fill: rgb(55, 71, 79); transform-origin: 78.265px 364.565px;" id="el7cb7av37f9s" class="animable"></path><path d="M50.69,342.69c-1.28-3.91-8.23-8.08-23.3-4,6.12-.28,13.69,1.59,14.31,3.84s-.93,1-7.47-.85A36.23,36.23,0,0,0,23.72,340a18.44,18.44,0,0,0-7.46,5.85c6.43-2.95,14.13-2.5,17.34-1.12s3.26,2.77.58,2.11-7.91-2.17-20.76,1.85c0,0-2.55,2-3.11,7.55,3.95-4,15.19-6.19,19.14-6.23s7.16,2.9,5,2.54c-4.59-.78-15.52,1.35-20.12,2.8-1.3.49-3.75,4.2-3.25,8.1,3.21-.87,9.72-5.4,14.56-5.34s-.77,1.47-4.62,3.26c-3.32,1.54-9.27,4.79-9.27,4.79a77.39,77.39,0,0,0,2.61,9.61,29.77,29.77,0,0,0,10-.79s2.38-9.58,4.68-10.64.76,2.79-1.06,6.21-2.34,4.72-2.34,4.72,8.75-.14,12.43-3.7c-.08-4.09-2.45-15.32-.43-16.74s1.94,14.06,1.94,14.06,8.87-2.19,11-4.34-1.28-9.77-2.05-10.69.79-1.71,2.51.58,2.49,9.14,2.49,9.14,5.13.91,8.42-6S61.3,343.75,50.69,342.69Z" style="fill: rgb(69, 90, 100); transform-origin: 36.6948px 356.453px;" id="el3yv9p2ty5y9" class="animable"></path><path d="M77.13,380.82c-5.34.78-10.37,3-10.35,8.63a14.46,14.46,0,0,0,1.66,5.47c0-3,5-9.44,4.89-9-.56,2.11-3.89,5.94-3.44,11.95a7,7,0,0,0,5.67,3.91c0-3.78.92-10.56,2.85-12.23s-.08,1.67-.63,4.78a54.06,54.06,0,0,0-.33,8.78s2,1.78,3.66,1.56c0-4.23.34-8.45,1.34-9.78s1.55-.12,1,2.44a66.84,66.84,0,0,0-.78,8.11s4.67,2.78,7.78,3.34c2.56-2.56,3.33-7.34,3.33-7.34a35.86,35.86,0,0,0-3.66-3.57c-2-1.65-2.23-4.21-1.12-3.43s4.78,4.45,4.78,4.45,2-4.56.89-7.78a28.37,28.37,0,0,0-5.55-3c-2.34-.78.66-1.45,2.33-.78a11.5,11.5,0,0,1,3.11,2s1.8-4.94-3.56-7.45-8.44-.67-8.44-.67,2.22-3.44,8-.55c0-1.89-2.46-4.59-7.89-3.22A10.56,10.56,0,0,0,77.13,380.82Z" style="fill: rgb(38, 50, 56); transform-origin: 80.8927px 392.923px;" id="eledwhozeiq2" class="animable"></path><path d="M62.55,362.76s.59-3.89-4.11-6.88-14.62-1.38-17.34,2.74c5.65-1.95,15.34,2.64,14.17,3.69s-3.79-1.05-9.56-1.84-7.15.54-10,4.63a16.39,16.39,0,0,0-3,8.06s6.44-5.16,13.5-5.24,8.93,2.69,3.69,3.28-13.7,3-16.37,5.16S31,384.52,32.8,385s7-4.73,10.83-7.19,7.94-2.15,7.37-.82-3.49,2.53-8.9,5.16a23.44,23.44,0,0,0-8.29,6.73s-.38,4.46.67,6.48c3.28-3.78,6.33-7.77,9.21-7.3s.41,2.48-3.88,6-4.83,3.71-4.43,7.47a66.1,66.1,0,0,0,1.45,8S44,409,46,407.75c0,0,.75-11.38,1.83-12S49.22,397,49,401.6a25.7,25.7,0,0,1-.94,6.54,15.47,15.47,0,0,0,6.36-3.09c.78-4-.31-10-1.08-14.3s-.29-5.51.8-5.37.54,2.59,1,6,1.23,9,3.88,11.63a16.92,16.92,0,0,0,8.22-7.69c-2-3-5.93-8.52-6.49-13.91s1.22-6.33,1.6-4.17a45.91,45.91,0,0,0,4,10.55,17.26,17.26,0,0,0,3.7,4.07,32.73,32.73,0,0,0,6.07-8.27,13.33,13.33,0,0,0,1.4-7.25s-5.28-6.25-6.61-7.22.4-1.23,2.63.5a22.82,22.82,0,0,1,4.09,4.5s1.31-5.45-2.34-8.62A13.94,13.94,0,0,0,62.55,362.76Z" style="fill: rgb(55, 71, 79); transform-origin: 54.6701px 381.936px;" id="el7upmb3m3g16" class="animable"></path><path d="M89.07,338.29c-5.78-1.14-14.08,0-18.5,4.58s-4.88,10.3-3.76,13.3,2.87-4.4,7.46-7.81,6.7-3.05,2.78.56-9.1,10.31-10,14.66,3.08,9.36,4.39,9.06-.07-4.82,2.22-11.09,6.68-10.32,10-11.2,2.47.19-2.08,5-10,14.72-8.07,19.57,6.66,6.6,7.94,6.2-1.68-6.48,1-14.17,8.12-13,10.88-11.21.58,3.86-2.29,9.56-6.79,17.19-5.63,20.95,8,6.46,9.07,5.33S92.66,384,94.6,376s5.42-11.16,5.64-7.81-4.81,19-3.58,21.73,13.7,7.28,13.7,7.28,6.81-7.93,7.27-10.36-5-12.48-8.15-15.41.92-3,3.42-1,8,9.34,8.31,13.06c3.41-3.66,6.49-8.35,3.69-11.55s-11.29-8.63-16.32-10.6-8.61-7.1-1.9-5.55,18.19,8.18,20.07,13c1-4.22.27-16.14-7-18.35s-15.06-1.93-17.34-2.8.75-2.8,6.34-2.91,13,.5,15.78,4.24c0-4.66-.46-9.35-9-9.73s-12.35,3-13.66,2,5.5-4.32,10.49-4.44c-3.27-4.12-7.43-5.29-12.13-4.42A19.7,19.7,0,0,0,89.07,338.29Z" style="fill: rgb(69, 90, 100); transform-origin: 96.6999px 364.655px;" id="el2lztnbd99z3" class="animable"></path><path d="M66.67,321.92c-1.34-3.76-6.84-5.23-9.52-4.16,2.82.81,5.13,3.17,3.56,2.42-3.28-1.59-5.35-2.32-9.24-1.68a6.58,6.58,0,0,0-5,4.09,23.43,23.43,0,0,1,7.93-.81c1.28.13,4.64.79.48.64-6.55-.23-9.08,2-9.08,2a8.89,8.89,0,0,0-2.55,4.69c3.55-3.55,9.15-3.95,11.23-4.09s3.92,1,.5,1.14-9.72,2.28-11.73,5.63-.8,8.71-.8,8.71,8-10.32,10.85-9c0,1.6-8.3,6.7-9.78,9.64s1.34,9.25,1.34,9.25,7.55-.27,9.54-1.47,1.52-9.46,2.6-10.67,3.68,5.17,2.2,10.53c0,0,3.75.67,4.56-2.27s-.4-9.12-2-11.93,1.07-2.15,2.41,0,3.06,6.85,2.55,9.92c0,0,4.42-1.88,5.63-4.16s-2.68-8.58-4.7-10.19-.13-2.81,1.88-1.2,5.23,6.43,5.5,8.84c2.39-4.14,2.77-9.49-.86-13.51C70.27,320.1,66.67,321.92,66.67,321.92Z" style="fill: rgb(55, 71, 79); transform-origin: 59.475px 333.905px;" id="el0hx60y6t7aco" class="animable"></path><path d="M82.16,331.27c-4.49-.81-7.83-7.48-4.72-13.23.92,3.33,3.22,7.47,4.72,6.61s-2.88-2-3.57-7.19c0,0,.51-2.07,3.88-2.76-.36,4.84,3,9.89,3.26,8.28.1-.64-1.5-3.22-1.38-6.21s1.53-4.9,6.1-5.74c-1.09,1.88-2.39,4.79-1.83,7.53.4,2,.92,2.91,1.38-.5s.47-4.61,2.31-6.68,5.61-2.09,5.61-2.09-3.22,3.22-2.76,4.95S97,310.9,100,309.29a18.62,18.62,0,0,1,5.87-2s1.84,3.46,1.84,4.84c-2.87.69-6.67,1.39-6.56,2.07s2.19,1.15,5.76-.46a3,3,0,0,1-.12,3.57s-1.35,1.21-6.67.29c-1.12-.2-2.59.2,1.73.92a12.38,12.38,0,0,0,5.4,0,4.79,4.79,0,0,1-4.22,4.23c-6.64,1.2-8.44,0-8.66.76-.09.3,1,.7,4.37.93a16.37,16.37,0,0,0,5.29-.35s.58,3.34-3.57,4.61-9.36-.25-9.58-.12c-.6.36,3.1,2.13,5.67,2.39,2.39.25,3.57.26,3.57.26a5.34,5.34,0,0,1-5.41,3.35c-4.26-.13-7.82-3.58-8.17-2.78s6.69,4.61,6.69,4.61S83.06,337.88,82.16,331.27Z" style="fill: rgb(38, 50, 56); transform-origin: 91.9686px 321.92px;" id="elbfi0r313q8g" class="animable"></path></g></g><g id="freepik--Character--inject-184" class="animable" style="transform-origin: 363.956px 295.345px;"><g id="freepik--character--inject-184" class="animable" style="transform-origin: 363.956px 295.345px;"><g id="freepik--Sofa--inject-184" class="animable" style="transform-origin: 364.591px 317.945px;"><path d="M258.08,379.42a2.43,2.43,0,0,1-.7-.11A2.22,2.22,0,0,1,256,376.5l17.16-51.91a24.11,24.11,0,0,1,9.31-11.14l71.24-41.13A6.65,6.65,0,0,1,364.05,277l8.75,25.21a2.22,2.22,0,1,1-4.19,1.46l-8.81-25.38a2.37,2.37,0,0,1-.09-.36,2.29,2.29,0,0,0-3.81-1.8l-71.24,41.13a19.72,19.72,0,0,0-7.33,8.75L260.18,377.9A2.21,2.21,0,0,1,258.08,379.42Z" style="fill: rgb(38, 50, 56); transform-origin: 314.417px 325.294px;" id="el3j1ecst43ru" class="animable"></path><path d="M363.38,441.4l-.26,0a2.22,2.22,0,0,1-1.95-2.46l7.13-59.43a17.29,17.29,0,0,1,7.74-12l71.24-41.13a8.18,8.18,0,0,1,11.82,3.94l0,.12,14.11,51.37a2.22,2.22,0,0,1-4.17,1.5L455,332a3.85,3.85,0,0,0-2.3-2.18,3.91,3.91,0,0,0-3.19.39l-71.24,41.13a13,13,0,0,0-5.55,8.6l-7.13,59.47A2.22,2.22,0,0,1,363.38,441.4Z" style="fill: rgb(38, 50, 56); transform-origin: 417.227px 383.3px;" id="elx3uehapps9" class="animable"></path><path d="M364.35,376.89a14.28,14.28,0,0,1-7-1.7L275.68,328c-2.23-1.29-3.51-3.2-3.51-5.24s1.28-3.94,3.5-5.23l83.17-48a15.22,15.22,0,0,1,14,0l81.68,47.19c2.22,1.29,3.5,3.2,3.5,5.23s-1.28,3.95-3.5,5.24l-83.17,48A14.24,14.24,0,0,1,364.35,376.89Zm1.48-104.95a10.17,10.17,0,0,0-4.93,1.15h0l-83.16,48c-.89.51-1.44,1.15-1.44,1.65s.55,1.15,1.44,1.66l81.68,47.19a11,11,0,0,0,9.86,0l83.16-48c.89-.51,1.44-1.15,1.44-1.66s-.55-1.14-1.44-1.65L370.76,273.1A10,10,0,0,0,365.83,271.94Zm-6-.63h0Z" style="fill: rgb(69, 90, 100); transform-origin: 365.095px 322.358px;" id="elpafu9mfij7" class="animable"></path><path d="M298.71,308.68a2.07,2.07,0,0,1-2-1.62l-8.39-38.41a2.07,2.07,0,1,1,4-.88l8.39,38.4a2.06,2.06,0,0,1-1.58,2.46A1.65,1.65,0,0,1,298.71,308.68Z" style="fill: rgb(55, 71, 79); transform-origin: 294.472px 287.262px;" id="el5dka1af3tax" class="animable"></path><path d="M337.87,286.07a2.07,2.07,0,0,1-2-1.62L327.46,246a2.07,2.07,0,1,1,4-.88l8.39,38.41a2.06,2.06,0,0,1-1.58,2.45A1.7,1.7,0,0,1,337.87,286.07Z" style="fill: rgb(55, 71, 79); transform-origin: 333.611px 264.632px;" id="elhavlv54ejzv" class="animable"></path><path d="M363.37,235.15a2.12,2.12,0,0,0-1.24-1.72l-10.82-6.24a6.59,6.59,0,0,0-6,0l-77.94,45a2.1,2.1,0,0,0-1.23,1.73v3.22a2.1,2.1,0,0,0,1.23,1.73l10.82,6.24a6.59,6.59,0,0,0,6,0l77.94-45a2.09,2.09,0,0,0,1.24-1.72Z" style="fill: rgb(55, 71, 79); transform-origin: 314.755px 256.15px;" id="el06p7gs0zjjrr" class="animable"></path><path d="M362.13,233.43l-10.82-6.24a6.59,6.59,0,0,0-6,0l-64.14,37v21.59a6,6,0,0,0,3-.71l77.94-45a2.09,2.09,0,0,0,1.24-1.72v-3.23A2.12,2.12,0,0,0,362.13,233.43Z" style="fill: rgb(38, 50, 56); transform-origin: 322.26px 256.125px;" id="elf333nojlkia" class="animable"></path><path d="M345.35,227.19l-77.94,45a1.82,1.82,0,0,0,0,3.45l10.82,6.24a6.59,6.59,0,0,0,6,0l77.94-45a2.09,2.09,0,0,0,1.24-1.72,2.12,2.12,0,0,0-1.24-1.72l-10.82-6.24A6.59,6.59,0,0,0,345.35,227.19Z" style="fill: rgb(69, 90, 100); transform-origin: 314.79px 254.537px;" id="elyrhjggigxtn" class="animable"></path><path d="M449.2,305.14l-85-49.11a2.09,2.09,0,0,0-2.11.21L281.21,303a6.57,6.57,0,0,0-3,5.16v12.48a2.09,2.09,0,0,0,.87,1.93l85,49.11a2.12,2.12,0,0,0,2.11-.21l80.92-46.73a6.59,6.59,0,0,0,3-5.17V307.07A2.08,2.08,0,0,0,449.2,305.14Z" style="fill: rgb(31, 64, 73); transform-origin: 364.159px 313.853px;" id="eln307jr9uxm" class="animable"></path><g id="el0ftne4n1u2so"><path d="M364.06,371.64l-84.95-49.1a2.11,2.11,0,0,1-.89-1.93V308.14a6.19,6.19,0,0,1,1-3.14l85,49.1a6.21,6.21,0,0,0-1,3.14v12.47A2.08,2.08,0,0,0,364.06,371.64Z" style="opacity: 0.15; transform-origin: 321.215px 338.32px;" class="animable"></path></g><g id="elbpqx9s5djhc"><path d="M363.19,369.72V357.24a6.6,6.6,0,0,1,3-5.16l80.92-46.74a1.82,1.82,0,0,1,3,1.73v12.47a6.59,6.59,0,0,1-3,5.17l-80.92,46.73a2.12,2.12,0,0,1-2.11.21A2.09,2.09,0,0,1,363.19,369.72Z" style="opacity: 0.25; transform-origin: 406.665px 338.354px;" class="animable"></path></g><path d="M454.55,237.26l-73.78-42.64a1.9,1.9,0,0,0-1.86.27l-10.82,6.25a8.39,8.39,0,0,0-3.57,5.11l-10,57.8c-.17,1,.05,1.66.53,1.94l73.78,42.64a1.9,1.9,0,0,0,1.86-.27l10.82-6.25a8.35,8.35,0,0,0,3.57-5.11l10-57.8C455.25,238.21,455,237.54,454.55,237.26Z" style="fill: rgb(31, 64, 73); transform-origin: 404.798px 251.625px;" id="eljbab37z18d8" class="animable"></path><g id="elefw030nc9lg"><path d="M428.29,306.69c-.17,1,0,1.65.52,1.94L355,266c-.48-.28-.68-.95-.52-1.93l10-57.81a7.81,7.81,0,0,1,1.34-3l73.77,42.63a7.55,7.55,0,0,0-1.33,3Z" style="opacity: 0.15; transform-origin: 397.008px 255.945px;" class="animable"></path></g><g id="el8o9c7aqz4yw"><path d="M430.68,308.36l10.82-6.25a8.35,8.35,0,0,0,3.57-5.11l10-57.8c.17-1-.05-1.66-.53-1.94a1.87,1.87,0,0,0-1.86.26l-10.82,6.25a8.31,8.31,0,0,0-3.57,5.11l-10,57.81c-.17,1,0,1.66.53,1.94A1.9,1.9,0,0,0,430.68,308.36Z" style="opacity: 0.25; transform-origin: 441.677px 272.941px;" class="animable"></path></g></g><g id="freepik--character--inject-184" class="animable" style="transform-origin: 339.106px 293.868px;"><g id="freepik--Bottom--inject-184" class="animable" style="transform-origin: 331.026px 352.373px;"><path d="M325.31,351.85c5.19.18,8.84,5,9,6.35.26,1.84-.54,5.36-3.35,9.39A30.79,30.79,0,0,0,326.42,381c-.31,4.07-.11,14.39-5,18.73s-14.62,7.18-16.65-.24c-.66-2.43,2.77-9.87,4.68-15.4,3.8-11,7.16-22,7.16-22Z" style="fill: rgb(38, 50, 56); transform-origin: 319.522px 377.961px;" id="elri3xl8mdhln" class="animable"></path><g id="eltehg95aaha9"><path d="M333,355.91c-.4,3.78-4.18,12.32-10.67,19.79s-15.21,16.76-17.59,22.36c.32-2.7,2.28-7.42,3.86-11.64l.1-.28.27-.73.12-.34.33-.92,0-.06c1.19-3.45,2.33-6.89,3.34-10,.81-2.49,1.54-4.76,2.13-6.64.3-.94.56-1.79.79-2.52.11-.36.22-.69.31-1,.38-1.21.59-1.9.59-1.9l8.71-10.19c.35,0,.68,0,1,.09A11.3,11.3,0,0,1,333,355.91Z" style="opacity: 0.15; transform-origin: 318.87px 374.95px;" class="animable"></path></g><path d="M325.36,361.17a112.13,112.13,0,0,0-4.12,16.42c-.93,6.1-2.9,9.88-5.46,12.24-2.83,2.6-8.91,3.29-7.16-2.86,1.22-4.28,8-24.93,8-24.93Z" style="fill: rgb(255, 168, 167); transform-origin: 316.834px 376.451px;" id="elfv115ynncr" class="animable"></path><path d="M309.18,391.1c-.82-.7-1.17-2-.56-4.13.28-1,.84-2.78,1.54-5,.93-2.73,1.82-5.42,2.62-7.89s1.54-4.76,2.13-6.64c.3-.94.56-1.79.79-2.52.12-.36.22-.69.31-1,.37-1.18.58-1.86.58-1.89h0l8.76-.87a116.66,116.66,0,0,0-4,15.63C317.39,381.34,312.68,386.54,309.18,391.1Z" style="fill: rgb(242, 143, 143); transform-origin: 316.831px 376.13px;" id="elp07h2krpf1" class="animable"></path><polygon points="298.56 337.49 306.69 362.19 323.48 350.25 319.45 322.17 298.56 337.49" style="fill: rgb(242, 143, 143); transform-origin: 311.02px 342.18px;" id="elteaoye6422" class="animable"></polygon><path d="M318,278.84a308.16,308.16,0,0,1,30.52-8.18L366,290.82l-20.36,11.63-26.79,9.93s1.09,3.06,1.92,11.19c.23,2.26.49,3.84.62,5.95-7.91,7-12.81,18.44-19.51,19.69,0,0-7.55-19.86-12.2-35.86-4.38-15.05,0-19.63,1.49-21.44C293.79,288.72,300,284.77,318,278.84Z" style="fill: rgb(55, 71, 79); transform-origin: 326.892px 309.935px;" id="eloudoi4jv2at" class="animable"></path><path d="M307.72,337.3c.06-.21.13-.42.19-.62.56-1.87,1.11-3.66,1.62-5.29a.75.75,0,0,1,.05-.16c.25-.81.49-1.57.72-2.29l0-.07h0c.59-1.85,1.11-3.42,1.51-4.5,1.31-3.57,4.78-7.8,7.42-10.65a69.46,69.46,0,0,1,1.41,8.53l-.09.2-5.79,12.06h0l-3,6.29-.83,1.06-.24.29c-.77,1-1.54,1.89-2.31,2.72l-.28.3c-.23.24-.45.47-.68.69l-.31.3-.69.63-.26.21a14.11,14.11,0,0,1-1.63,1.17h0c.94-3.26,2-6.68,2.92-9.93h0C307.53,337.92,307.63,337.61,307.72,337.3Z" style="fill: rgb(38, 50, 56); transform-origin: 312.585px 330.945px;" id="el5gihi6pw89i" class="animable"></path><path d="M321.43,311.43c1.77-1.41,5.57-4.44,7.36-5.69,6.77-4.73,21.44-14.32,21.44-14.32l3.21,1.11-7.77,9.92Z" style="fill: rgb(38, 50, 56); transform-origin: 337.435px 301.425px;" id="elquvny3brd3r" class="animable"></path><path d="M302.22,405.65c1.25.13,1,2.25,1.25,5.05a13.8,13.8,0,0,1-1,8.07c-1.59,3.21-7.05,3-10.45,7s-8.54,11.44-18.45,12.5-17-2.9-18.48-6,.39-5.64,7-8.55c7-3.08,8.94-4,8.94-4Z" style="fill: rgb(38, 50, 56); transform-origin: 279.148px 422.048px;" id="elujo9obrokwe" class="animable"></path><path d="M319.41,376.65q-1.5,2.09-3.22,4.35c-5,7.34-11,16.2-12.95,20.43-1,2.11-.95,3.09-1.23,5.67a6.23,6.23,0,0,1-2.12,3.74,46.9,46.9,0,0,1-3.69,3c-3.42,2.56-9.15,9.83-14.69,12.82s-14.35,1.18-16.15-1.14a1.88,1.88,0,0,1,.24-2.89c1-.84,3.65-2.69,4.85-3.72a78.55,78.55,0,0,0,14.06-15.57c2-3,5.57-11.41,9.07-20.32h0s2.38-6.72,5.63-15.77" style="fill: rgb(255, 196, 195); transform-origin: 292.101px 397.737px;" id="elek91poehir5" class="animable"></path><path d="M316.81,321c4.09-7.92,39.54-30.23,39.54-30.23s-2.24-14.48-3.29-24.47L406.63,279c1.3,7.05,1.36,16.77-2.32,23.74-4.9,9.26-16.53,16.2-31,22.62-13.56,6-28.24,11.55-31.66,13-3,1.23-4.29,3.41-5.59,9.54-1.24,5.82-5.39,13.17-16.64,28.84-6.65.74-17.64-5-20.2-9.36C305.2,350.65,314.16,326.12,316.81,321Z" style="fill: rgb(55, 71, 79); transform-origin: 353.329px 321.552px;" id="el9x53u6gs1f" class="animable"></path><path d="M347,281.92a17.15,17.15,0,0,0,6.42,10.61l-2,1.37S346.38,290,347,281.92Z" style="fill: rgb(55, 71, 79); transform-origin: 350.184px 287.91px;" id="elwfn5bzfhtmi" class="animable"></path></g><g id="freepik--Top--inject-184" class="animable" style="transform-origin: 366.91px 228.345px;"><path id="freepik--Arm--inject-184" d="M368.71,204.56c-10,0-15.5,2.89-23.75,20.11-5.62,11.74-14.74,34.12-14.74,34.12l10.07,12.37c5.84-10.79,12.18-21.48,21.71-37.31Z" style="fill: rgb(255, 196, 195); transform-origin: 349.465px 237.86px;" class="animable"></path><g id="freepik--Chest--inject-184" class="animable" style="transform-origin: 376.972px 248.649px;"><path d="M351.06,244.31c-6.09-9.56-.47-16.11,1.62-20.12,4.18-8,16.37-19.39,16.37-19.39s4.45-1.33,14.19-1.17c6.9.12,6.49-.6,10.18.47l11.18,5.52c-3.55,4.42-2.85,12.06-2.59,17.18.63,12.17,4.52,15.28,4.52,15.28s-1.61,12.75-2.38,15.79c-.53,2.06.6,8,1.69,11.85a152.61,152.61,0,0,1,3.87,19.36,2.44,2.44,0,0,1-1.63,2.57c-21.95,7.47-54.31-5.86-63.86-20.07.65-3.69,5.31-9.77,6.13-13.71C351.31,253.23,351.56,251.36,351.06,244.31Z" style="fill: rgb(31, 64, 73); transform-origin: 376.972px 248.649px;" id="elriwrbhgmva" class="animable"></path><g id="elnw61n41eckq"><path d="M351.06,244.31c-6.09-9.56-.47-16.11,1.62-20.12,4.18-8,16.37-19.39,16.37-19.39s4.45-1.33,14.19-1.17c6.9.12,6.49-.6,10.18.47l11.18,5.52c-3.55,4.42-2.85,12.06-2.59,17.18.63,12.17,4.52,15.28,4.52,15.28s-1.61,12.75-2.38,15.79c-.53,2.06.6,8,1.69,11.85a152.61,152.61,0,0,1,3.87,19.36,2.44,2.44,0,0,1-1.63,2.57c-21.95,7.47-54.31-5.86-63.86-20.07.65-3.69,5.31-9.77,6.13-13.71C351.31,253.23,351.56,251.36,351.06,244.31Z" style="fill: rgb(255, 255, 255); opacity: 0.25; transform-origin: 376.972px 248.649px;" class="animable"></path></g><g id="elt9k4yob7tq"><path d="M368.71,250.74s4.68,5.84,14.77,4.16,12.06-9.3,12.06-9.3.6,9.79-11.45,11.76C372.22,259.3,368.71,250.74,368.71,250.74Z" style="opacity: 0.1; transform-origin: 382.127px 251.623px;" class="animable"></path></g></g><g id="freepik--arm--inject-184" class="animable" style="transform-origin: 366.91px 258.2px;"><path d="M376.63,292.49v0l-10.39-36.73a2.88,2.88,0,0,0-2.18-2.08l-43.74-15,1.95,6.93,8.94,31.6a12.72,12.72,0,0,1-7.92,14.94L368.7,307.4a12.72,12.72,0,0,0,7.93-14.91Z" style="fill: rgb(224, 224, 224); transform-origin: 348.653px 273.04px;" id="elhbddlofyem8" class="animable"></path><g id="elrijz04vk14"><path d="M330.73,275.44a7.79,7.79,0,0,0,2-.24c2.34-.6,1.35-3,2.15-4.68a4.74,4.74,0,0,0,.59-2.21c0-.81-.49-1.69-.48-2.38s.58-1.14.67-1.73a2,2,0,0,0-1.69-2.27c-1.76-.46-4.86.49-6.62,1.45Z" style="opacity: 0.1; transform-origin: 331.516px 268.625px;" class="animable"></path></g><g id="elrizkg9apga"><path d="M375.55,288.66l-3.08-10.89a37.48,37.48,0,0,0-5.4-2.31c-3.11-1.36-6.44-2.64-9.4-4.3-2.25-1.26-3.78-3.27-5.93-4.65a19,19,0,0,0-2.05-1.34,2.49,2.49,0,0,0-1.36-.13c-1.59-.08-1.72,1.48-1.53,2.73a8.44,8.44,0,0,1,.31,2.18,5.44,5.44,0,0,0-.1,2.24,20.82,20.82,0,0,0,1,2.07,6.13,6.13,0,0,1,.14,2.14c0,2.59,1.65,4.35,3.36,6.15,4,4.18,9.36,7.22,15.19,7.42C369.58,290.07,373.05,290.3,375.55,288.66Z" style="opacity: 0.1; transform-origin: 361.142px 277.52px;" class="animable"></path></g><path d="M320.32,238.61l-1.3-.44-.31-.11c-2.31-.72-6,.56-8.49,3.34l12,4.14L355.72,257a11.28,11.28,0,0,1,5-3.21,7.36,7.36,0,0,1,2.15-.33,3.08,3.08,0,0,1,.53,0s0,0,.07,0l.51.08a.15.15,0,0,1,.08,0l.14,0Z" style="fill: rgb(31, 64, 73); transform-origin: 337.21px 247.431px;" id="eljfofujsu2b8" class="animable"></path><path d="M321.12,238.89a12,12,0,0,0-7.6,1.89l41.75,14.35a13.6,13.6,0,0,1,2.57-1.87,5.61,5.61,0,0,1,2.85-.77Z" style="fill: rgb(245, 245, 245); transform-origin: 337.105px 246.986px;" id="ell2n9wnq59r" class="animable"></path><path d="M403.27,209c7.8,3.52,15.91,8,17.43,18.45,1.71,11.8,2.37,22.23,2.86,41.79.12,4.63.47,10.35-7.91,12.21-13.31,3-32.66,4.85-37.5,5.25-3.1.26-9.93.86-12.34.58-7.54-.91-11.56-5.41-13.93-7.76-1.31-1.29-2.58-2.88-2.56-4.72a6.56,6.56,0,0,0,0-1.77,7.5,7.5,0,0,0-.85-1.54,3.13,3.13,0,0,1-.3-1.9,10.37,10.37,0,0,0,.34-1.73c0-1.18-1.11-2.05-1.6-3.13a1,1,0,0,1-.11-.51c.05-.39.46-.62.85-.71a7.74,7.74,0,0,1,5.1,1.15c4.77,2.91,7.49,6.53,14.19,6.72,1.6.05,3.53-.6,3.11-2.14l-.82-3.06c3.83.79,5.89,4.55,9,5.2,2.79.58,25.58-6,25.58-6L399,237.11S394.07,216.32,403.27,209Z" style="fill: rgb(255, 196, 195); transform-origin: 385.199px 248.176px;" id="el7h4c7q1y3af" class="animable"></path><path d="M325.86,258.23a2.29,2.29,0,0,0,.45.83c1.19,1.22,3.73,1.13,5.28,1.18,1.08,0,3,.13,3.61,1.18,1.09,1.8-1.18,2.82-2.14,3.77.77,1,1.73,1.46,1.49,3.07-.17,1.2-1.33,1.75-1.39,3,0,.74.29,1.29-.36,1.87a2.7,2.7,0,0,1-1.81.43c-2,.08-2.77-.58-4-2-2.3-2.68-3.87-7.69-4.31-10.41s-.75-7.56,1.54-8.71c-.13.06,1.26,4.41,1.37,4.8S325.75,257.88,325.86,258.23Z" style="fill: rgb(255, 168, 167); transform-origin: 328.93px 263.009px;" id="elbwdhk3myyql" class="animable"></path></g><g id="freepik--Head--inject-184" class="animable" style="transform-origin: 377.355px 184.248px;"><path d="M355.18,179.6c-6.95-4.46-6.8-14.35-2.69-20,5.61-7.72,18.11-10.7,25.34-10.27,4.87.29,10.67,2.37,12.58,6.53,5.52,4.06,8.66,10.79,8,19.46-.6,8.51-7.14,13.47-6.74,17.22Z" style="fill: rgb(55, 71, 79); transform-origin: 374.065px 170.915px;" id="el1jrvlz1btq7" class="animable"></path><path d="M390.41,155.86c4-.1,10.37,6.17,10.22,18.4-.12,9.49,5.57,13.19,4.25,20.44-.75,4.14-5.55,5.73-6.79,5.62a7.57,7.57,0,0,0,1.15-6.24s-.94,7-10,9.37-12.24.88-12.24.88-14.63,7-20.5-6.25c5.2-.26,8-9.67,6.2-22.45s-2-14.07-2-14.07Z" style="fill: rgb(55, 71, 79); transform-origin: 380.789px 181.018px;" id="elsljwucut3xe" class="animable"></path><path d="M394.73,174.72c-3.71-.21-4.47,2.57-6.14,3.92a1.75,1.75,0,0,1-2.66-.75c-.87-2.47-.84-9.39-4.16-12.37-4.15-3.71-8.53-3.92-13.29.52-6.47-5-14.91-1.67-13.06,17.21,1.42,14.53,5.8,17.93,8,18.9,3.25,1.44,5.91,1.12,10,.24l.5,4.6s-9.17,11-.73,12.09c13.11,1.69,20.33-14,20.33-14-.77-6.19-1.65-12.38-2.5-17.43h0c1.27,1.89,4.91,1.26,6.69-1.61C400.85,181,399.28,175,394.73,174.72Z" style="fill: rgb(255, 196, 195); transform-origin: 377.256px 190.965px;" id="el4hwetuercn7" class="animable"></path><polygon points="368.88 176.45 369.18 188.99 362.75 186.54 368.88 176.45" style="fill: rgb(255, 168, 167); transform-origin: 365.965px 182.72px;" id="ela0y44fc83d" class="animable"></polygon><path d="M371,192a2.35,2.35,0,0,0,3.18,1.05,2.42,2.42,0,0,0,1.05-3.19c-.22-.5-1,.34-2.13.93S370.67,191.38,371,192Z" style="fill: rgb(177, 102, 104); transform-origin: 373.209px 191.508px;" id="elhxh2qlhh2lr" class="animable"></path><path d="M373.26,179a1.94,1.94,0,1,0,3.71,1.13,1.63,1.63,0,0,0-1.22-2.17A1.86,1.86,0,0,0,373.26,179Z" style="fill: rgb(38, 50, 56); transform-origin: 375.115px 179.681px;" id="elihhy4hq6sps" class="animable"></path><path d="M359.06,180.64a1.94,1.94,0,1,0,3.74-1c-.29-1.08-1.28-1.34-2.32-1.06S358.77,179.57,359.06,180.64Z" style="fill: rgb(38, 50, 56); transform-origin: 360.948px 180.34px;" id="elkg8inw0yxbc" class="animable"></path><path d="M358,177.16l4.07-1.82a2.13,2.13,0,0,0-2.87-1.17A2.34,2.34,0,0,0,358,177.16Z" style="fill: rgb(38, 50, 56); transform-origin: 359.953px 175.569px;" id="el4zcbdyzoxog" class="animable"></path><path d="M378.31,176.06l-4.23-1.42a2.14,2.14,0,0,1,2.75-1.45A2.35,2.35,0,0,1,378.31,176.06Z" style="fill: rgb(38, 50, 56); transform-origin: 376.241px 174.568px;" id="elplgmj2yixk" class="animable"></path><path d="M373.46,202.39c4-1.15,11.59-4.65,12.44-8.19,0,0,.49,2.73-2.37,5.55-2.38,2.35-9.84,4.68-9.84,4.68Z" style="fill: rgb(255, 168, 167); transform-origin: 379.696px 199.315px;" id="eldtaowmna4b4" class="animable"></path></g></g></g><path d="M392.32,362.76a2.25,2.25,0,0,1-.58-.08,2.07,2.07,0,0,1-1.41-2.56l8.39-28.72a2.07,2.07,0,0,1,4,1.16l-8.39,28.72A2.07,2.07,0,0,1,392.32,362.76Z" style="fill: rgb(55, 71, 79); transform-origin: 396.526px 346.329px;" id="elgz9985r4vm6" class="animable"></path><path d="M431.48,340.15a2.25,2.25,0,0,1-.58-.08,2.07,2.07,0,0,1-1.41-2.56l8.39-28.72a2.07,2.07,0,0,1,4,1.16l-8.39,28.72A2.07,2.07,0,0,1,431.48,340.15Z" style="fill: rgb(55, 71, 79); transform-origin: 435.685px 323.721px;" id="elp3ea1w2l64i" class="animable"></path><path d="M465.11,293.93a2.1,2.1,0,0,0-1.24-1.72L453.06,286a6.55,6.55,0,0,0-6,0l-77.94,45a2.1,2.1,0,0,0-1.23,1.73v3.22a2.1,2.1,0,0,0,1.23,1.73L380,343.88a6.59,6.59,0,0,0,6,0l77.94-45a2.08,2.08,0,0,0,1.24-1.72Z" style="fill: rgb(55, 71, 79); transform-origin: 416.535px 314.938px;" id="elwauwmc0z4mb" class="animable"></path><path d="M463.87,292.21,453.06,286a6.55,6.55,0,0,0-6,0L383,323v21.59a6,6,0,0,0,3-.71l77.94-45a2.08,2.08,0,0,0,1.24-1.72v-3.23A2.1,2.1,0,0,0,463.87,292.21Z" style="fill: rgb(38, 50, 56); transform-origin: 424.09px 314.932px;" id="el8yn23ecwrk4" class="animable"></path><path d="M447.09,286l-77.94,45a1.82,1.82,0,0,0,0,3.45L380,340.65a6.59,6.59,0,0,0,6,0l77.94-45a2.07,2.07,0,0,0,1.24-1.72,2.1,2.1,0,0,0-1.24-1.72L453.06,286A6.55,6.55,0,0,0,447.09,286Z" style="fill: rgb(69, 90, 100); transform-origin: 416.545px 313.326px;" id="eluz8bk02z4mb" class="animable"></path></g></g><g id="freepik--speech-bubble--inject-184" class="animable animator-hidden" style="transform-origin: 378.4px 113.797px;"><g id="freepik--speech-bubble--inject-184" class="animable" style="transform-origin: 378.4px 113.797px;"><g id="freepik--speech-bubble--inject-184" class="animable" style="transform-origin: 378.4px 113.797px;"><path d="M377,139.05l2.7-5.09-2.18-6.28v-3.85l6.67,3.85v3.85l-2.87,5a.39.39,0,0,1-.19.17h0Z" style="fill: rgb(31, 64, 73); transform-origin: 380.595px 131.44px;" id="ele1ar5trz1df" class="animable"></path><g id="elmpv7q0zinql"><path d="M377,139.05l2.7-5.09-2.18-6.28v-3.85l6.67,3.85v3.85l-2.87,5a.39.39,0,0,1-.19.17h0Z" style="opacity: 0.2; transform-origin: 380.595px 131.44px;" class="animable"></path></g><path d="M361.12,93.25a4.44,4.44,0,0,1,2-3.46l1.63-.94a4.45,4.45,0,0,1,4,0l24.95,14.43a4.44,4.44,0,0,1,2,3.46v27.45a4.44,4.44,0,0,1-2,3.46l-1.63.94a4.45,4.45,0,0,1-4,0L380,134l-2.85,5a.43.43,0,0,1-.78-.07l-3-8.72-10.27-6a4.44,4.44,0,0,1-2-3.46Z" style="fill: rgb(31, 64, 73); transform-origin: 378.4px 113.797px;" id="elkts81q7q24q" class="animable"></path><g id="el2u8jgwb6454"><path d="M395.69,134.19a4.44,4.44,0,0,1-2,3.46l-1.63.94a4.5,4.5,0,0,1-3.65.16c.94.35,1.65-.18,1.65-1.32V110a4.07,4.07,0,0,0-.58-2l5.62-3.25a4.11,4.11,0,0,1,.59,2Z" style="opacity: 0.2; transform-origin: 392.05px 121.906px;" class="animable"></path></g><g id="elv8iw81ini3"><path d="M361.19,92.68c.23-.84,1-1.11,1.93-.58l24.95,14.43a4,4,0,0,1,1.4,1.49l5.62-3.24a4,4,0,0,0-1.4-1.5L368.75,88.85a4.47,4.47,0,0,0-4,0l-1.63,1A4.42,4.42,0,0,0,361.19,92.68Z" style="fill: rgb(255, 255, 255); opacity: 0.3; transform-origin: 378.14px 98.1988px;" class="animable"></path></g></g><path d="M384,116.79a12.58,12.58,0,0,0-1.05-4.93h0l0,0a8.65,8.65,0,0,0-3.15-4c-2.15-1.27-4,1.31-4.23,4.35-.26-3.36-2-8-4.18-9.29a2.35,2.35,0,0,0-3.17.31v0h0a5.55,5.55,0,0,0-1.08,3.68c0,5.14,3.06,9.8,5.65,14.7l2.79,4.73,2.69-1.51C380.86,123,384,121.93,384,116.79Z" style="fill: rgb(250, 250, 250); transform-origin: 375.564px 114.392px;" id="eltj2nqw87ng" class="animable"></path></g></g><defs>     <filter id="active" height="200%">         <feMorphology in="SourceAlpha" result="DILATED" operator="dilate" radius="2"></feMorphology>                <feFlood flood-color="#32DFEC" flood-opacity="1" result="PINK"></feFlood>        <feComposite in="PINK" in2="DILATED" operator="in" result="OUTLINE"></feComposite>        <feMerge>            <feMergeNode in="OUTLINE"></feMergeNode>            <feMergeNode in="SourceGraphic"></feMergeNode>        </feMerge>    </filter>    <filter id="hover" height="200%">        <feMorphology in="SourceAlpha" result="DILATED" operator="dilate" radius="2"></feMorphology>                <feFlood flood-color="#ff0000" flood-opacity="0.5" result="PINK"></feFlood>        <feComposite in="PINK" in2="DILATED" operator="in" result="OUTLINE"></feComposite>        <feMerge>            <feMergeNode in="OUTLINE"></feMergeNode>            <feMergeNode in="SourceGraphic"></feMergeNode>        </feMerge>            <feColorMatrix type="matrix" values="0   0   0   0   0                0   1   0   0   0                0   0   0   0   0                0   0   0   1   0 "></feColorMatrix>    </filter></defs></svg>