<svg width="500" height="500" viewBox="0 0 500 500" fill="none" xmlns="http://www.w3.org/2000/svg">
<path fill-rule="evenodd" clip-rule="evenodd" d="M157.5 462.893C169.501 468.623 182.63 471.6 195.929 471.607H386.857C408.148 471.607 428.738 463.999 444.913 450.155C461.088 436.311 471.784 417.143 475.071 396.107L497.429 253.143C499.028 242.951 498.4 232.533 495.588 222.606C492.777 212.68 487.849 203.48 481.142 195.641C474.436 187.801 466.111 181.507 456.74 177.191C447.369 172.876 437.174 170.642 426.857 170.643H309.643V86.5C309.66 73.6453 305.408 61.1488 297.556 50.9714C289.703 40.794 278.694 33.5117 266.255 30.2672C253.817 27.0228 240.653 27.9997 228.83 33.0449C217.006 38.09 207.193 46.9177 200.929 58.1429L126.75 190.643C122.274 198.642 119.925 207.655 119.929 216.821V411.179C119.927 421.296 122.791 431.208 128.189 439.766C133.586 448.324 141.297 455.178 150.429 459.536L157.572 462.929L157.5 462.893ZM37.2858 197.179C32.6115 197.174 27.9821 198.091 23.6623 199.876C19.3424 201.662 15.4169 204.281 12.11 207.585C8.80307 210.888 6.1797 214.811 4.38984 219.129C2.59997 223.447 1.67871 228.076 1.67871 232.75V415.321C1.67871 424.765 5.43017 433.822 12.1078 440.499C18.7854 447.177 27.8422 450.929 37.2858 450.929H55.0001C59.7361 450.929 64.2782 449.047 67.627 445.698C70.9759 442.349 72.8573 437.807 72.8573 433.071V215C72.8573 210.264 70.9759 205.722 67.627 202.373C64.2782 199.024 59.7361 197.143 55.0001 197.143L37.2858 197.179Z" fill="#1F4049"/>
</svg>
