<svg width="100" height="100" viewBox="0 0 100 100" fill="none" xmlns="http://www.w3.org/2000/svg">
<g clip-path="url(#clip0_15_63)">
<path d="M31.4125 93.75C69.15 93.75 89.7937 62.4812 89.7937 35.4125C89.8021 34.5333 89.7896 33.6542 89.7563 32.775C93.7741 29.864 97.2426 26.2622 100 22.1375C96.2444 23.7892 92.2665 24.88 88.1938 25.375C92.485 22.8107 95.6988 18.7751 97.2375 14.0187C93.208 16.4108 88.795 18.0876 84.1937 18.975C81.1011 15.6814 77.0088 13.4995 72.5505 12.7672C68.0923 12.035 63.517 12.7933 59.5334 14.9246C55.5497 17.056 52.38 20.4414 50.5153 24.5566C48.6506 28.6718 48.1949 33.2871 49.2188 37.6875C41.0605 37.2804 33.079 35.162 25.7927 31.4698C18.5063 27.7776 12.078 22.5942 6.925 16.2562C4.30988 20.7759 3.51219 26.1212 4.69379 31.2074C5.8754 36.2936 8.94778 40.7398 13.2875 43.6437C10.0338 43.5386 6.85121 42.6648 4 41.0937V41.375C4.00796 46.1086 5.64887 50.6946 8.64577 54.3587C11.6427 58.0228 15.812 60.5408 20.45 61.4875C18.6892 61.9728 16.8702 62.2146 15.0438 62.2062C13.7557 62.2196 12.4698 62.1002 11.2062 61.85C12.515 65.9268 15.0674 69.4916 18.5052 72.0439C21.9431 74.5963 26.0939 76.0081 30.375 76.0812C23.1006 81.7873 14.1203 84.8842 4.875 84.875C3.24562 84.8873 1.61716 84.7933 0 84.5937C9.38389 90.5779 20.2829 93.7548 31.4125 93.75Z" fill="#1F4049"/>
</g>
<defs>
<clipPath id="clip0_15_63">
<rect width="100" height="100" fill="white"/>
</clipPath>
</defs>
</svg>
